Coordinates
version=1
nRows=13
nColumns=40
inDegrees=yes

Units are S.I. units (second, meters, Newtons, ...)
If the header above contains a line with 'inDegrees', this indicates whether rotational values are in degrees (yes) or radians (no).

endheader
time	pelvis_tilt	pelvis_list	pelvis_rotation	pelvis_tx	pelvis_ty	pelvis_tz	hip_flexion_r	hip_adduction_r	hip_rotation_r	knee_angle_r	knee_angle_r_beta	ankle_angle_r	subtalar_angle_r	mtp_angle_r	hip_flexion_l	hip_adduction_l	hip_rotation_l	knee_angle_l	knee_angle_l_beta	ankle_angle_l	subtalar_angle_l	mtp_angle_l	lumbar_extension	lumbar_bending	lumbar_rotation	arm_flex_r	arm_add_r	arm_rot_r	elbow_flex_r	pro_sup_r	wrist_flex_r	wrist_dev_r	arm_flex_l	arm_add_l	arm_rot_l	elbow_flex_l	pro_sup_l	wrist_flex_l	wrist_dev_l
      3.22000000	     -7.85307586	      7.28943098	     -7.47663470	      1.26383883	      0.99229017	     -0.46312546	      6.48721992	    -11.29926884	      3.87905546	     53.23492520	      0.92912472	     -7.64511489	      0.00000000	      0.00000000	     30.58457748	      4.48950812	    -13.48213361	     23.75177092	      0.41454661	      4.39262852	      0.00000000	      0.00000000	     -2.89220855	     -7.25594412	      6.94075264	     -2.63792329	     -9.78865055	      6.42905578	     53.25317105	     73.25101610	      0.00000000	      0.00000000	    -14.73427850	    -11.74767016	     -0.67743731	     40.70964925	     77.82050399	      0.00000000	      0.00000000
      3.23000000	     -7.82304924	      7.41769584	     -7.65650004	      1.26382772	      0.99399543	     -0.46307053	      8.45897791	    -11.21988955	      4.60130458	     56.44823512	      0.98520756	     -8.01806921	      0.00000000	      0.00000000	     29.75761365	      4.71562228	    -13.56590716	     23.73617423	      0.41427439	      4.96376063	      0.00000000	      0.00000000	     -2.98199074	     -7.48589990	      6.69244702	     -2.96187442	     -9.53260573	      6.08793602	     52.71375389	     73.17143793	      0.00000000	      0.00000000	    -14.38647293	    -12.03182948	     -0.22994164	     41.31737376	     77.64829327	      0.00000000	      0.00000000
      3.24000000	     -7.77135498	      7.40433729	     -7.85057695	      1.26380436	      0.99590889	     -0.46299963	     10.29842764	    -10.94542133	      5.24311662	     59.31001368	      1.03515502	     -7.26384988	      0.00000000	      0.00000000	     28.87414299	      4.81924673	    -13.55207520	     23.70610726	      0.41374962	      5.52612712	      0.00000000	      0.00000000	     -3.08606575	     -7.53544808	      6.48097543	     -3.30401463	     -9.39918244	      5.77948785	     52.21112735	     73.04808473	      0.00000000	      0.00000000	    -13.98749407	    -12.30877277	      0.33955923	     41.89355407	     77.40138110	      0.00000000	      0.00000000
      3.25000000	     -7.59506494	      7.15817977	     -7.92225024	      1.26381681	      0.99827051	     -0.46304316	     11.82284370	    -10.42171121	      5.64429791	     61.71893969	      1.07719871	     -5.97350113	      0.00000000	      0.00000000	     27.82213867	      4.78385837	    -13.26712924	     23.69231005	      0.41350882	      6.04387823	      0.00000000	      0.00000000	     -3.36635854	     -7.34268827	      6.15105811	     -3.64171552	     -9.34704756	      5.55928939	     51.73418808	     72.95148188	      0.00000000	      0.00000000	    -13.47876311	    -12.48425689	      0.75657983	     42.29327914	     77.22158862	      0.00000000	      0.00000000
      3.26000000	     -7.72752762	      6.92528591	     -7.93955187	      1.26372757	      1.00024152	     -0.46315685	     13.71757053	     -9.90604365	      5.84146684	     63.92063270	      1.11562550	     -4.60738008	      0.00000000	      0.00000000	     27.07049267	      4.71615044	    -13.06708003	     23.58960717	      0.41171631	      6.44729610	      0.00000000	      0.00000000	     -3.24827540	     -7.09603354	      5.88557610	     -4.09261471	     -9.29575853	      5.15345762	     51.22759101	     72.86253958	      0.00000000	      0.00000000	    -13.01099575	    -12.76246581	      1.48935654	     42.81586580	     76.90012582	      0.00000000	      0.00000000
      3.27000000	     -7.64099786	      6.51476024	     -7.90452336	      1.26343589	      1.00264958	     -0.46328831	     15.26340816	     -9.18843920	      5.95973162	     65.68413090	      1.14640435	     -3.67598305	      0.00000000	      0.00000000	     26.06076033	      4.54992164	    -12.62496326	     23.47663604	      0.40974460	      6.86822572	      0.00000000	      0.00000000	     -3.43100865	     -6.67293454	      5.53346315	     -4.44979548	     -9.36021207	      4.85408910	     50.77759734	     72.78590473	      0.00000000	      0.00000000	    -12.39240876	    -12.96835213	      1.95575259	     43.12556793	     76.55699366	      0.00000000	      0.00000000
      3.28000000	     -7.45745574	      6.08369280	     -7.92103269	      1.26294410	      1.00524363	     -0.46324387	     16.68080327	     -8.43565500	      6.05276519	     67.09902765	      1.17109896	     -3.14232103	      0.00000000	      0.00000000	     24.92528718	      4.34259891	    -12.27432547	     23.31030126	      0.40684151	      7.24922990	      0.00000000	      0.00000000	     -3.73983543	     -6.26038622	      5.16047174	     -4.74943328	     -9.46914821	      4.72616090	     50.37199245	     72.70930972	      0.00000000	      0.00000000	    -11.78341236	    -13.06054160	      2.20636341	     43.46111416	     76.37274270	      0.00000000	      0.00000000
      3.29000000	     -7.50654770	      5.72582034	     -8.00084147	      1.26230788	      1.00749046	     -0.46289166	     18.34140289	     -7.63458944	      6.29181634	     68.22491728	      1.19074944	     -2.78154917	      0.00000000	      0.00000000	     23.94940306	      4.15155603	    -11.95554367	     22.89392554	      0.39957438	      7.63543060	      0.00000000	      0.00000000	     -3.72991466	     -5.89023554	      4.95674541	     -5.14964994	     -9.53242085	      4.51258001	     49.91210922	     72.62148818	      0.00000000	      0.00000000	    -11.20953722	    -13.34955685	      2.88968100	     43.99516611	     75.99366382	      0.00000000	      0.00000000
      3.30000000	     -7.42507432	      5.37280413	     -8.04431174	      1.26172448	      1.00985491	     -0.46258900	     19.78418675	     -6.87965627	      6.45606779	     69.01973496	      1.20462162	     -2.49466507	      0.00000000	      0.00000000	     22.85705409	      3.97902152	    -11.71724443	     22.54619279	      0.39350530	      7.97432469	      0.00000000	      0.00000000	     -3.85682784	     -5.54134433	      4.67670469	     -5.54801798	     -9.62973953	      4.34986193	     49.55753476	     72.53510742	      0.00000000	      0.00000000	    -10.59713317	    -13.53358338	      3.25633920	     44.44557720	     75.71767892	      0.00000000	      0.00000000
      3.31000000	     -7.40322179	      5.02706405	     -8.00185400	      1.26139257	      1.01208115	     -0.46262284	     21.20422219	     -6.25867570	      6.38240251	     69.51711931	      1.21330262	     -2.13417965	      0.00000000	      0.00000000	     21.77586962	      3.84956632	    -11.46590190	     22.10257453	      0.38576270	      8.19117535	      0.00000000	      0.00000000	     -3.90347882	     -5.15084958	      4.33333102	     -5.98603660	     -9.75704207	      4.01598377	     49.18144599	     72.44249374	      0.00000000	      0.00000000	    -10.08783323	    -13.65179146	      3.65838905	     44.91108525	     75.41292230	      0.00000000	      0.00000000
      3.32000000	     -7.40941259	      4.66222852	     -7.85991378	      1.26106509	      1.01417071	     -0.46285302	     22.55909225	     -5.70125263	      6.15181015	     69.69272273	      1.21636748	     -1.66890312	      0.00000000	      0.00000000	     20.70628838	      3.74133602	    -11.10879306	     21.60843004	      0.37713825	      8.43080721	      0.00000000	      0.00000000	     -3.92158062	     -4.72378738	      3.91533231	     -6.45700198	     -9.86879082	      3.59754940	     48.81992038	     72.36230213	      0.00000000	      0.00000000	     -9.57003641	    -13.74713381	      3.92215726	     45.41642664	     75.14804667	      0.00000000	      0.00000000
      3.33000000	     -7.34299066	      4.38820385	     -7.61119421	      1.26070384	      1.01621346	     -0.46327478	     23.78930041	     -5.40735805	      5.71345693	     69.61725540	      1.21505032	     -1.20019070	      0.00000000	      0.00000000	     19.48177232	      3.80993771	    -10.53723024	     20.88909928	      0.36458356	      8.48282154	      0.00000000	      0.00000000	     -4.03617284	     -4.37289363	      3.53689915	     -7.09225240	     -9.87406347	      2.63146102	     48.69161643	     72.39698088	      0.00000000	      0.00000000	     -8.93007359	    -13.92277566	      4.47789919	     45.92581328	     74.37681317	      0.00000000	      0.00000000
      3.34000000	     -7.38884769	      4.03961380	     -7.50557789	      1.26017874	      1.01782585	     -0.46350661	     25.11371861	     -4.96381835	      5.42212895	     69.30236723	      1.20955449	     -0.64337789	      0.00000000	      0.00000000	     18.51159784	      3.66186209	    -10.35900955	     20.49556161	      0.35771503	      8.76167083	      0.00000000	      0.00000000	     -4.01501225	     -3.93953444	      3.18709901	     -7.64523093	    -10.14159805	      2.45902361	     48.52702021	     72.32875188	      0.00000000	      0.00000000	     -8.47418364	    -13.94524996	      4.53098092	     46.52073642	     74.18619756	      0.00000000	      0.00000000
